<?xml version="1.0" encoding="UTF-8"?>
<svg xmlns="http://www.w3.org/2000/svg" width="420" height="280" viewBox="0 0 420 280">
<rect width="100%" height="100%" fill="#f5f5f5" />
<circle cx="126" cy="222" r="4" fill="#ff7f0e" />
<circle cx="126" cy="220" r="4" fill="#ff7f0e" />
<circle cx="70" cy="222" r="4" fill="#1f77b4" />
<circle cx="224" cy="212" r="4" fill="#ff7f0e" />
<circle cx="28" cy="261" r="4" fill="#2ca02c" />
<circle cx="126" cy="216" r="4" fill="#d62728" />
<circle cx="112" cy="251" r="4" fill="#1f77b4" />
<circle cx="196" cy="231" r="4" fill="#111" />
<circle cx="56" cy="261" r="4" fill="#1f77b4" />
<circle cx="70" cy="224" r="4" fill="#ff7f0e" />
<circle cx="154" cy="214" r="4" fill="#9467bd" />
<circle cx="112" cy="261" r="4" fill="#1f77b4" />
<circle cx="56" cy="259" r="4" fill="#1f77b4" />
<circle cx="154" cy="220" r="4" fill="#ff7f0e" />
<circle cx="98" cy="261" r="4" fill="#1f77b4" />
<circle cx="140" cy="241" r="4" fill="#ff7f0e" />
<circle cx="168" cy="216" r="4" fill="#9467bd" />
<circle cx="98" cy="183" r="4" fill="#1f77b4" />
<circle cx="154" cy="196" r="4" fill="#9467bd" />
<circle cx="140" cy="220" r="4" fill="#2ca02c" />
<circle cx="84" cy="235" r="4" fill="#9467bd" />
</svg>
